<svg xmlns="http://www.w3.org/2000/svg" xmlns:xlink="http://www.w3.org/1999/xlink" width="40" zoomAndPan="magnify" viewBox="0 0 30 30.000001" height="40" preserveAspectRatio="xMidYMid meet" version="1.0"><defs><clipPath id="1b142104c4"><path d="M 2.230469 5.371094 L 27.625 5.371094 L 27.625 24.71875 L 2.230469 24.71875 Z M 2.230469 5.371094 " clip-rule="nonzero"/></clipPath><clipPath id="eb5da4f4a9"><path d="M 14 4.398438 L 16 4.398438 L 16 9 L 14 9 Z M 14 4.398438 " clip-rule="nonzero"/></clipPath><clipPath id="84807cbfc4"><path d="M 2.230469 12 L 27.636719 12 L 27.636719 22 L 2.230469 22 Z M 2.230469 12 " clip-rule="nonzero"/></clipPath></defs><g clip-path="url(#1b142104c4)"><path fill="#c51d69" d="M 26.628906 21.546875 C 26.425781 21.5 26.085938 20.859375 26.085938 20.859375 C 26.085938 20.859375 26.222656 21.429688 25.566406 21.5 C 24.910156 21.566406 24.726562 20.929688 24.726562 20.929688 C 24.726562 20.929688 24.617188 21.339844 24.027344 21.316406 C 23.4375 21.292969 23.234375 20.699219 23.234375 20.699219 C 23.234375 20.699219 23.097656 21.15625 22.554688 21.179688 C 22.011719 21.203125 21.742188 20.539062 21.742188 20.539062 C 21.742188 20.539062 21.628906 20.859375 21.152344 20.8125 C 20.679688 20.769531 20.542969 20.015625 20.542969 20.015625 C 20.542969 20.015625 20.476562 20.359375 19.910156 20.3125 C 19.34375 20.265625 19.164062 19.671875 19.164062 19.671875 C 19.164062 19.671875 18.980469 20.039062 18.484375 19.902344 C 17.984375 19.761719 17.964844 19.167969 17.964844 19.167969 C 17.964844 19.167969 17.714844 19.445312 17.375 19.101562 C 17.035156 18.757812 17.058594 18.121094 17.058594 18.121094 C 17.058594 18.121094 17.015625 18.097656 16.960938 18.0625 C 16.773438 17.9375 16.527344 17.984375 16.402344 18.164062 C 16.402344 18.164062 17.714844 20.953125 18.097656 22.503906 C 18.484375 24.058594 18.234375 24.445312 17.804688 24.398438 C 17.375 24.355469 17.308594 23.941406 17.308594 23.941406 C 17.308594 23.941406 17.375 24.492188 16.855469 24.535156 C 16.46875 24.570312 16.394531 24.289062 16.382812 24.144531 C 16.375 24.320312 16.308594 24.71875 15.835938 24.71875 C 15.226562 24.71875 15.066406 24.332031 14.976562 23.988281 C 14.957031 23.921875 14.941406 23.859375 14.929688 23.800781 C 14.914062 23.859375 14.898438 23.921875 14.878906 23.988281 C 14.789062 24.332031 14.632812 24.71875 14.019531 24.71875 C 13.546875 24.71875 13.480469 24.320312 13.476562 24.144531 C 13.464844 24.289062 13.390625 24.570312 13.003906 24.535156 C 12.480469 24.492188 12.550781 23.941406 12.550781 23.941406 C 12.550781 23.941406 12.480469 24.355469 12.050781 24.398438 C 11.621094 24.445312 11.375 24.058594 11.757812 22.503906 C 12.144531 20.953125 13.453125 18.164062 13.453125 18.164062 C 13.328125 17.984375 13.082031 17.9375 12.898438 18.0625 C 12.839844 18.097656 12.800781 18.121094 12.800781 18.121094 C 12.800781 18.121094 12.820312 18.757812 12.480469 19.101562 C 12.144531 19.445312 11.894531 19.167969 11.894531 19.167969 C 11.894531 19.167969 11.871094 19.761719 11.375 19.902344 C 10.875 20.039062 10.695312 19.671875 10.695312 19.671875 C 10.695312 19.671875 10.511719 20.265625 9.949219 20.3125 C 9.382812 20.359375 9.316406 20.015625 9.316406 20.015625 C 9.316406 20.015625 9.179688 20.769531 8.703125 20.8125 C 8.226562 20.859375 8.113281 20.539062 8.113281 20.539062 C 8.113281 20.539062 7.84375 21.203125 7.300781 21.179688 C 6.757812 21.15625 6.621094 20.699219 6.621094 20.699219 C 6.621094 20.699219 6.417969 21.292969 5.828125 21.316406 C 5.242188 21.339844 5.128906 20.929688 5.128906 20.929688 C 5.128906 20.929688 4.949219 21.566406 4.292969 21.5 C 3.636719 21.429688 3.769531 20.859375 3.769531 20.859375 C 3.769531 20.859375 3.429688 21.5 3.226562 21.546875 C 3.023438 21.589844 2.007812 21.820312 2.277344 20.472656 C 2.550781 19.125 5.613281 14.238281 5.613281 14.238281 C 7.570312 11.328125 8.945312 10.101562 10.265625 9.941406 C 11.589844 9.78125 12.011719 10.980469 12.355469 10.660156 C 12.417969 10.605469 12.5 10.480469 12.597656 10.320312 C 12.996094 9.660156 13.203125 8.898438 13.203125 8.128906 L 13.203125 7.152344 C 13.203125 6.1875 13.976562 5.402344 14.933594 5.402344 C 15.890625 5.402344 16.667969 6.1875 16.667969 7.152344 L 16.667969 8.144531 C 16.667969 8.941406 16.882812 9.722656 17.304688 10.394531 C 17.382812 10.519531 17.449219 10.613281 17.5 10.660156 C 17.84375 10.980469 18.269531 9.78125 19.589844 9.941406 C 20.914062 10.101562 22.289062 11.328125 24.246094 14.238281 C 24.246094 14.238281 27.308594 19.125 27.578125 20.472656 C 27.851562 21.820312 26.832031 21.589844 26.628906 21.546875 " fill-opacity="1" fill-rule="nonzero"/></g><g clip-path="url(#eb5da4f4a9)"><path fill="#71cd98" d="M 14.320312 6.695312 C 13.984375 7.035156 13.984375 7.585938 14.320312 7.925781 C 14.65625 8.265625 15.203125 8.265625 15.539062 7.925781 C 15.875 7.585938 15.875 7.035156 15.539062 6.695312 C 15.203125 6.355469 14.65625 6.355469 14.320312 6.695312 Z M 15.378906 5.371094 C 15.378906 5.621094 15.175781 5.824219 14.929688 5.824219 C 14.679688 5.824219 14.480469 5.621094 14.480469 5.371094 C 14.480469 5.121094 14.679688 4.398438 14.929688 4.398438 C 15.175781 4.398438 15.378906 5.121094 15.378906 5.371094 " fill-opacity="1" fill-rule="nonzero"/></g><path fill="#71cd98" d="M 13.179688 9.371094 C 13.132812 9.371094 13.074219 9.375 13.015625 9.378906 C 13.058594 9.238281 13.09375 9.09375 13.121094 8.953125 C 13.148438 8.949219 13.167969 8.949219 13.179688 8.949219 C 13.398438 8.953125 13.613281 8.953125 13.828125 8.957031 C 14.261719 8.957031 14.695312 8.960938 15.128906 8.957031 C 15.664062 8.953125 16.203125 8.945312 16.738281 8.933594 C 16.765625 9.074219 16.796875 9.214844 16.835938 9.355469 C 16.132812 9.371094 15.429688 9.378906 14.722656 9.378906 C 14.207031 9.382812 13.695312 9.378906 13.179688 9.371094 " fill-opacity="1" fill-rule="nonzero"/><g clip-path="url(#84807cbfc4)"><path fill="#71cd98" d="M 6.378906 15.402344 C 6.65625 15.5 6.9375 15.597656 7.21875 15.691406 C 7.351562 15.734375 7.488281 15.777344 7.621094 15.820312 C 8.152344 15.984375 8.6875 16.136719 9.230469 16.269531 C 9.367188 16.300781 9.503906 16.335938 9.640625 16.367188 C 9.929688 16.433594 10.222656 16.496094 10.515625 16.550781 C 10.652344 16.578125 10.789062 16.605469 10.929688 16.628906 C 11.277344 16.6875 11.625 16.742188 11.972656 16.785156 C 12.109375 16.804688 12.246094 16.820312 12.382812 16.835938 C 12.917969 16.894531 13.457031 16.933594 13.996094 16.953125 C 14.136719 16.957031 14.273438 16.960938 14.414062 16.960938 C 14.792969 16.96875 15.171875 16.960938 15.546875 16.941406 C 15.683594 16.9375 15.824219 16.925781 15.960938 16.917969 C 16.484375 16.878906 17 16.820312 17.515625 16.734375 C 17.648438 16.714844 17.78125 16.691406 17.910156 16.664062 C 18.421875 16.566406 18.933594 16.445312 19.433594 16.296875 C 19.558594 16.257812 19.679688 16.21875 19.800781 16.179688 C 20.214844 16.046875 20.625 15.890625 21.027344 15.71875 C 21.082031 15.695312 21.136719 15.671875 21.191406 15.648438 C 21.261719 15.613281 21.335938 15.582031 21.40625 15.546875 C 21.828125 15.347656 22.238281 15.117188 22.617188 14.851562 C 22.734375 14.769531 22.847656 14.6875 22.957031 14.597656 C 23.28125 14.34375 23.582031 14.0625 23.851562 13.75 C 23.765625 13.632812 23.683594 13.515625 23.601562 13.398438 C 22.132812 15.195312 19.589844 15.949219 17.398438 16.300781 C 14.621094 16.75 11.761719 16.488281 9.042969 15.792969 C 7.800781 15.472656 6.585938 15.0625 5.398438 14.578125 C 5.332031 14.679688 5.257812 14.800781 5.175781 14.9375 C 5.433594 15.042969 5.691406 15.144531 5.953125 15.246094 C 6.09375 15.296875 6.238281 15.351562 6.378906 15.402344 Z M 25.105469 15.648438 C 25.027344 15.519531 24.953125 15.394531 24.882812 15.277344 C 24.59375 15.582031 24.292969 15.859375 23.972656 16.113281 C 23.863281 16.199219 23.75 16.285156 23.640625 16.367188 C 23.179688 16.699219 22.695312 16.988281 22.1875 17.234375 C 22.066406 17.296875 21.941406 17.355469 21.816406 17.410156 C 21.328125 17.628906 20.824219 17.8125 20.308594 17.96875 C 20.175781 18.007812 20.039062 18.046875 19.90625 18.085938 C 19.375 18.226562 18.835938 18.339844 18.296875 18.429688 C 18.171875 18.449219 18.046875 18.46875 17.921875 18.488281 C 17.652344 18.523438 17.382812 18.558594 17.113281 18.585938 C 17.144531 18.722656 17.199219 18.863281 17.285156 18.988281 C 18.738281 18.832031 20.1875 18.542969 21.546875 17.996094 C 22.875 17.457031 24.109375 16.6875 25.105469 15.648438 Z M 25.324219 19.976562 C 25.457031 19.613281 25.8125 19.4375 26.140625 19.671875 C 26.378906 19.839844 26.519531 20.117188 26.609375 20.390625 C 26.714844 20.703125 26.832031 21.144531 27.210938 21.207031 C 27.363281 21.234375 27.492188 21.183594 27.605469 21.09375 C 27.636719 20.9375 27.632812 20.734375 27.578125 20.472656 C 27.578125 20.457031 27.574219 20.441406 27.570312 20.425781 C 27.5625 20.441406 27.554688 20.457031 27.542969 20.46875 C 27.441406 20.640625 27.328125 20.882812 27.15625 20.660156 C 27.066406 20.546875 27.046875 20.378906 27.003906 20.242188 C 26.753906 19.492188 25.839844 18.636719 25.140625 19.460938 C 24.800781 19.867188 24.824219 20.40625 24.902344 20.902344 C 24.917969 21.007812 24.945312 21.152344 24.941406 21.28125 C 25.042969 21.386719 25.1875 21.480469 25.386719 21.5 C 25.480469 21.023438 25.152344 20.449219 25.324219 19.976562 Z M 22.644531 20.371094 C 22.386719 20.566406 22.320312 20.859375 22.347656 21.152344 C 22.414062 21.171875 22.480469 21.183594 22.554688 21.179688 C 22.632812 21.175781 22.699219 21.164062 22.757812 21.148438 C 22.746094 21.050781 22.742188 20.933594 22.78125 20.882812 C 22.878906 20.753906 23.066406 20.71875 23.207031 20.769531 C 23.226562 20.726562 23.234375 20.699219 23.234375 20.699219 C 23.234375 20.699219 23.25 20.746094 23.289062 20.816406 C 23.296875 20.820312 23.304688 20.824219 23.308594 20.832031 C 23.410156 20.929688 23.496094 21.039062 23.574219 21.15625 C 23.6875 21.242188 23.835938 21.308594 24.027344 21.316406 C 24.078125 21.320312 24.121094 21.316406 24.164062 21.3125 C 24.019531 21.132812 23.914062 20.910156 23.773438 20.726562 C 23.511719 20.386719 23.054688 20.066406 22.644531 20.371094 Z M 4.261719 19.984375 C 4.234375 19.578125 3.945312 19.253906 3.527344 19.265625 C 3.179688 19.273438 2.851562 19.484375 2.546875 19.707031 C 2.425781 19.984375 2.335938 20.222656 2.292969 20.410156 C 2.347656 20.371094 2.40625 20.339844 2.460938 20.300781 C 2.738281 20.121094 3.011719 19.871094 3.316406 19.742188 C 3.851562 19.519531 3.902344 20.085938 3.761719 20.433594 C 3.65625 20.703125 3.457031 20.929688 3.332031 21.191406 C 3.289062 21.289062 3.242188 21.417969 3.214844 21.546875 C 3.21875 21.546875 3.222656 21.546875 3.226562 21.546875 C 3.429688 21.5 3.769531 20.859375 3.769531 20.859375 C 3.769531 20.859375 3.730469 21.03125 3.804688 21.199219 C 4.019531 20.808594 4.292969 20.464844 4.261719 19.984375 Z M 5.175781 21.027344 C 5.238281 21.128906 5.382812 21.277344 5.671875 21.3125 C 5.777344 21.289062 5.886719 21.28125 5.988281 21.292969 C 6.191406 21.246094 6.335938 21.128906 6.4375 21.011719 C 6.359375 20.972656 6.273438 20.941406 6.1875 20.921875 C 5.839844 20.835938 5.496094 20.894531 5.175781 21.027344 Z M 13.214844 15.867188 C 13.90625 15.792969 14.5 15.050781 14.425781 14.363281 C 14.394531 14.097656 13.976562 14.09375 14.007812 14.363281 C 14.054688 14.800781 13.78125 15.183594 13.398438 15.375 C 12.96875 15.589844 12.570312 15.21875 12.644531 14.757812 C 12.6875 14.492188 12.285156 14.378906 12.242188 14.648438 C 12.140625 15.25 12.542969 15.9375 13.214844 15.867188 Z M 8.527344 14.082031 C 8.402344 14.378906 8.03125 14.429688 7.746094 14.34375 C 7.207031 14.179688 7.628906 13.636719 7.855469 13.394531 C 8.039062 13.195312 7.742188 12.898438 7.558594 13.09375 C 7.332031 13.339844 7.109375 13.597656 7.070312 13.945312 C 7.039062 14.25 7.175781 14.53125 7.445312 14.675781 C 7.90625 14.925781 8.664062 14.820312 8.886719 14.292969 C 8.992188 14.046875 8.632812 13.832031 8.527344 14.082031 Z M 16.160156 15.429688 C 16.914062 15.375 17.324219 14.671875 17.226562 13.964844 C 17.191406 13.699219 16.789062 13.8125 16.824219 14.078125 C 16.882812 14.507812 16.625 14.941406 16.183594 15 C 15.71875 15.0625 15.34375 14.660156 15.441406 14.195312 C 15.5 13.933594 15.097656 13.820312 15.039062 14.085938 C 14.886719 14.800781 15.417969 15.480469 16.160156 15.429688 Z M 10.1875 15.339844 C 10.898438 15.566406 11.476562 14.976562 11.542969 14.296875 C 11.570312 14.027344 11.152344 14.027344 11.128906 14.296875 C 11.089844 14.679688 10.78125 15.039062 10.371094 14.957031 C 10.011719 14.882812 9.859375 14.453125 10.125 14.1875 C 10.316406 13.996094 10.023438 13.699219 9.828125 13.890625 C 9.367188 14.347656 9.570312 15.148438 10.1875 15.339844 Z M 19.144531 15.070312 C 19.683594 14.882812 19.972656 14.1875 20.085938 13.675781 C 20.140625 13.410156 19.738281 13.296875 19.679688 13.5625 C 19.609375 13.898438 19.472656 14.316406 19.199219 14.542969 C 18.75 14.917969 18.34375 14.441406 18.082031 14.089844 C 17.925781 13.875 17.5625 14.085938 17.722656 14.300781 C 18.050781 14.742188 18.53125 15.28125 19.144531 15.070312 Z M 20.433594 13.5625 C 20.335938 13.3125 20.738281 13.203125 20.835938 13.453125 C 20.96875 13.785156 21.4375 13.890625 21.726562 13.707031 C 22.070312 13.488281 22.121094 12.988281 21.957031 12.640625 C 21.84375 12.398438 22.203125 12.183594 22.316406 12.429688 C 22.589844 13.003906 22.476562 13.789062 21.875 14.105469 C 21.335938 14.390625 20.65625 14.121094 20.433594 13.5625 " fill-opacity="1" fill-rule="nonzero"/></g><path fill="#fefad9" d="M 15.5625 21.765625 C 15.472656 22.222656 15.316406 22.65625 15.097656 23.066406 C 15.023438 23.203125 14.808594 23.203125 14.734375 23.066406 C 14.523438 22.671875 14.40625 22.257812 14.371094 21.816406 C 14.351562 21.542969 14.769531 21.546875 14.792969 21.816406 C 14.808594 22.035156 14.851562 22.246094 14.921875 22.449219 C 15.023438 22.191406 15.101562 21.925781 15.15625 21.652344 C 15.207031 21.382812 15.613281 21.5 15.5625 21.765625 Z M 16.5 19.839844 C 16.492188 20.292969 16.425781 20.734375 16.308594 21.171875 C 16.261719 21.335938 16.078125 21.363281 15.957031 21.265625 C 15.589844 20.957031 15.328125 20.566406 15.160156 20.113281 C 15.066406 19.859375 15.472656 19.75 15.566406 20.003906 C 15.664062 20.265625 15.804688 20.5 15.988281 20.707031 C 16.042969 20.421875 16.074219 20.132812 16.082031 19.839844 C 16.085938 19.566406 16.503906 19.566406 16.5 19.839844 Z M 14.042969 20.164062 C 13.964844 20.464844 13.828125 20.734375 13.640625 20.96875 C 13.589844 20.722656 13.550781 20.472656 13.527344 20.222656 C 13.5 19.953125 13.082031 19.953125 13.105469 20.222656 C 13.144531 20.636719 13.214844 21.046875 13.324219 21.445312 C 13.367188 21.609375 13.554688 21.640625 13.671875 21.539062 C 14.054688 21.207031 14.320312 20.769531 14.449219 20.273438 C 14.515625 20.011719 14.113281 19.898438 14.042969 20.164062 Z M 10.386719 18.320312 C 10.527344 17.757812 10.707031 17.203125 10.941406 16.671875 C 10.945312 16.660156 10.945312 16.652344 10.949219 16.644531 C 10.808594 16.617188 10.671875 16.59375 10.53125 16.566406 C 10.285156 17.144531 10.089844 17.738281 9.949219 18.355469 C 9.945312 18.363281 9.945312 18.375 9.945312 18.386719 C 10.089844 18.410156 10.230469 18.4375 10.375 18.460938 C 10.398438 18.414062 10.398438 18.367188 10.386719 18.320312 Z M 11.992188 16.828125 C 11.933594 17.429688 11.875 18.035156 11.816406 18.636719 C 11.953125 18.648438 12.089844 18.660156 12.230469 18.671875 C 12.230469 18.664062 12.234375 18.65625 12.234375 18.648438 C 12.292969 18.050781 12.347656 17.449219 12.40625 16.851562 C 12.269531 16.835938 12.132812 16.820312 11.996094 16.800781 C 11.996094 16.808594 11.992188 16.816406 11.992188 16.828125 Z M 9.65625 16.382812 C 9.519531 16.347656 9.378906 16.316406 9.242188 16.28125 C 8.953125 16.863281 8.691406 17.453125 8.445312 18.054688 C 8.582031 18.089844 8.71875 18.125 8.855469 18.15625 C 9.09375 17.566406 9.355469 16.988281 9.640625 16.417969 C 9.648438 16.40625 9.652344 16.394531 9.65625 16.382812 Z M 6.382812 15.410156 C 6.242188 15.359375 6.097656 15.308594 5.957031 15.253906 C 5.960938 15.269531 5.960938 15.285156 5.96875 15.296875 C 5.902344 15.390625 5.78125 15.578125 5.765625 15.601562 C 5.683594 15.75 5.605469 15.898438 5.535156 16.054688 C 5.417969 16.308594 5.316406 16.566406 5.222656 16.832031 C 5.347656 16.898438 5.472656 16.960938 5.601562 17.019531 C 5.734375 16.625 5.898438 16.238281 6.097656 15.871094 C 6.167969 15.738281 6.3125 15.578125 6.382812 15.410156 Z M 7.222656 15.703125 C 6.960938 16.203125 6.695312 16.703125 6.433594 17.207031 C 6.417969 17.222656 6.40625 17.238281 6.394531 17.257812 C 6.382812 17.292969 6.367188 17.324219 6.351562 17.355469 C 6.480469 17.410156 6.613281 17.460938 6.746094 17.511719 C 7.039062 16.953125 7.335938 16.390625 7.628906 15.832031 C 7.496094 15.789062 7.359375 15.746094 7.222656 15.703125 Z M 14.445312 16.976562 C 14.304688 16.976562 14.164062 16.972656 14.027344 16.96875 C 13.9375 17.527344 13.875 18.085938 13.84375 18.652344 C 13.839844 18.683594 13.84375 18.710938 13.855469 18.738281 C 13.984375 18.738281 14.109375 18.738281 14.238281 18.738281 C 14.25 18.714844 14.257812 18.683594 14.261719 18.652344 C 14.292969 18.089844 14.355469 17.53125 14.445312 16.976562 Z M 21.464844 15.558594 C 21.390625 15.59375 21.316406 15.625 21.246094 15.660156 C 21.191406 15.683594 21.136719 15.707031 21.082031 15.730469 C 21.328125 16.289062 21.570312 16.847656 21.8125 17.402344 C 21.8125 17.40625 21.816406 17.410156 21.816406 17.410156 C 21.941406 17.355469 22.066406 17.296875 22.1875 17.234375 C 22.1875 17.222656 22.179688 17.207031 22.175781 17.191406 C 21.9375 16.648438 21.699219 16.101562 21.464844 15.558594 Z M 19.851562 16.195312 C 19.730469 16.234375 19.605469 16.273438 19.484375 16.308594 C 19.484375 16.308594 19.484375 16.308594 19.484375 16.3125 C 19.554688 16.921875 19.691406 17.507812 19.90625 18.085938 C 20.039062 18.046875 20.175781 18.007812 20.308594 17.96875 C 20.109375 17.433594 19.96875 16.882812 19.902344 16.3125 C 19.894531 16.261719 19.878906 16.222656 19.851562 16.195312 Z M 22.679688 14.859375 C 22.945312 15.398438 23.265625 15.898438 23.640625 16.367188 C 23.75 16.285156 23.863281 16.199219 23.972656 16.113281 C 23.597656 15.648438 23.285156 15.144531 23.019531 14.605469 C 22.90625 14.695312 22.792969 14.78125 22.679688 14.859375 Z M 15.695312 18.695312 C 15.867188 18.683594 16.039062 18.675781 16.207031 18.660156 C 16.183594 18.628906 16.148438 18.601562 16.109375 18.585938 C 16.070312 18.035156 16.035156 17.484375 16 16.933594 C 15.859375 16.941406 15.722656 16.953125 15.582031 16.957031 C 15.621094 17.535156 15.660156 18.117188 15.695312 18.695312 Z M 18.304688 18.316406 C 18.207031 17.777344 18.097656 17.246094 17.96875 16.714844 C 17.964844 16.703125 17.960938 16.691406 17.953125 16.679688 C 17.824219 16.707031 17.691406 16.730469 17.558594 16.75 C 17.554688 16.773438 17.554688 16.800781 17.5625 16.828125 C 17.691406 17.355469 17.804688 17.890625 17.902344 18.425781 C 17.90625 18.449219 17.914062 18.46875 17.921875 18.488281 C 18.046875 18.46875 18.171875 18.449219 18.296875 18.429688 C 18.308594 18.394531 18.3125 18.355469 18.304688 18.316406 Z M 22.285156 18.242188 C 21.800781 18.550781 21.679688 19.296875 21.6875 19.820312 C 21.691406 20.09375 22.109375 20.109375 22.105469 19.835938 C 22.101562 19.492188 22.136719 19.054688 22.351562 18.765625 C 22.707031 18.296875 23.210938 18.667969 23.546875 18.953125 C 23.75 19.125 24.058594 18.835938 23.851562 18.660156 C 23.429688 18.304688 22.835938 17.890625 22.285156 18.242188 Z M 25.121094 17.199219 C 24.398438 17.425781 24.15625 18.207031 24.410156 18.875 C 24.507812 19.128906 24.875 18.921875 24.777344 18.671875 C 24.621094 18.265625 24.777344 17.78125 25.195312 17.621094 C 25.636719 17.449219 26.09375 17.757812 26.101562 18.234375 C 26.109375 18.503906 26.527344 18.523438 26.519531 18.25 C 26.519531 18.195312 26.515625 18.144531 26.507812 18.09375 C 26.382812 17.863281 26.253906 17.632812 26.121094 17.398438 C 25.859375 17.175781 25.496094 17.078125 25.121094 17.199219 Z M 21.003906 20.214844 C 21.15625 20.433594 21.523438 20.234375 21.371094 20.011719 C 21.027344 19.515625 20.300781 19.414062 19.839844 19.816406 C 19.714844 19.925781 19.625 20.058594 19.5625 20.199219 C 19.65625 20.257812 19.773438 20.300781 19.910156 20.3125 C 19.929688 20.3125 19.953125 20.3125 19.972656 20.316406 C 20 20.261719 20.035156 20.214844 20.078125 20.171875 C 20.316406 19.925781 20.796875 19.917969 21.003906 20.214844 Z M 3.988281 18.289062 C 3.859375 18.527344 4.199219 18.769531 4.332031 18.53125 C 4.609375 18.023438 4.488281 17.292969 3.914062 17.082031 C 3.839844 17.210938 3.769531 17.339844 3.695312 17.46875 C 4.027344 17.558594 4.171875 17.949219 3.988281 18.289062 Z M 7.390625 19.992188 C 7.210938 20.191406 7.480469 20.515625 7.660156 20.3125 C 7.878906 20.074219 8.246094 20.148438 8.488281 20.324219 C 8.710938 20.492188 8.683594 20.664062 8.570312 20.816406 C 8.609375 20.820312 8.65625 20.820312 8.703125 20.8125 C 8.859375 20.800781 8.980469 20.707031 9.070312 20.589844 C 9.066406 20.417969 9.007812 20.253906 8.882812 20.113281 C 8.527344 19.722656 7.773438 19.570312 7.390625 19.992188 Z M 6.507812 18.5625 C 5.90625 18.113281 5.164062 18.476562 4.875 19.097656 C 4.761719 19.34375 5.15625 19.480469 5.269531 19.238281 C 5.433594 18.886719 5.84375 18.652344 6.207031 18.867188 C 6.519531 19.058594 6.523438 19.515625 6.183594 19.675781 C 5.941406 19.792969 6.121094 20.171875 6.367188 20.058594 C 6.953125 19.78125 7.027344 18.953125 6.507812 18.5625 Z M 8.976562 10.433594 C 9.105469 10.355469 9.226562 10.285156 9.347656 10.222656 C 9.417969 10.433594 9.417969 10.671875 9.375 10.902344 C 9.289062 11.351562 8.734375 12.320312 9.378906 12.570312 C 9.992188 12.808594 10.507812 12.148438 10.824219 11.734375 C 11.050781 11.433594 11.414062 10.859375 11.839844 10.851562 C 12.296875 10.847656 12.371094 11.464844 12.332031 11.808594 C 12.304688 12.097656 12.1875 12.378906 12.175781 12.667969 C 12.160156 13.046875 12.394531 13.558594 12.824219 13.171875 C 13.074219 12.949219 13.246094 12.621094 13.449219 12.359375 C 13.621094 12.132812 13.800781 11.917969 13.988281 11.707031 C 14.238281 11.429688 14.632812 10.863281 15.074219 11.050781 C 15.429688 11.203125 15.441406 11.65625 15.472656 11.984375 C 15.5 12.269531 15.570312 12.574219 15.765625 12.792969 C 16.03125 13.101562 16.417969 13.007812 16.628906 12.6875 C 16.960938 12.1875 16.628906 11.378906 17.074219 10.960938 C 17.355469 10.699219 17.796875 10.800781 18.074219 11.011719 C 18.507812 11.335938 18.507812 11.894531 18.785156 12.320312 C 18.886719 12.476562 19.15625 12.523438 19.308594 12.394531 C 19.386719 12.328125 19.402344 12.078125 19.402344 12.015625 C 19.402344 11.828125 19.355469 11.644531 19.335938 11.460938 C 19.3125 11.246094 19.308594 11.039062 19.375 10.832031 C 19.492188 10.476562 19.816406 10.203125 20.203125 10.289062 C 20.699219 10.394531 20.890625 10.929688 21.070312 11.339844 C 21.183594 11.589844 21.417969 12.058594 21.761719 11.855469 C 21.90625 11.769531 21.980469 11.574219 22.019531 11.386719 C 22.125 11.496094 22.234375 11.613281 22.347656 11.738281 C 22.25 11.980469 22.089844 12.191406 21.84375 12.28125 C 21.347656 12.464844 20.960938 12.066406 20.757812 11.65625 C 20.617188 11.375 20.546875 11.023438 20.296875 10.816406 C 19.695312 10.316406 19.746094 11.402344 19.785156 11.683594 C 19.851562 12.136719 19.808594 12.710938 19.328125 12.921875 C 18.859375 13.125 18.488281 12.707031 18.3125 12.316406 C 18.195312 12.058594 18.144531 11.75 17.984375 11.515625 C 17.890625 11.386719 17.699219 11.207031 17.523438 11.238281 C 17.28125 11.277344 17.269531 11.660156 17.253906 11.882812 C 17.214844 12.382812 17.117188 12.914062 16.691406 13.230469 C 15.824219 13.871094 15.128906 12.828125 15.058594 12.039062 C 15.042969 11.898438 15.0625 11.726562 15.003906 11.597656 C 14.886719 11.339844 14.722656 11.550781 14.582031 11.691406 C 14.363281 11.914062 14.152344 12.148438 13.957031 12.386719 C 13.617188 12.804688 13.3125 13.492188 12.78125 13.695312 C 12.390625 13.84375 12.015625 13.632812 11.855469 13.261719 C 11.644531 12.757812 11.859375 12.289062 11.914062 11.78125 C 11.929688 11.65625 11.941406 11.542969 11.890625 11.425781 C 11.8125 11.238281 11.867188 11.296875 11.71875 11.363281 C 11.59375 11.417969 11.46875 11.59375 11.386719 11.691406 C 11.210938 11.902344 11.058594 12.128906 10.882812 12.339844 C 10.585938 12.695312 10.203125 12.972656 9.730469 13.019531 C 9.320312 13.0625 8.925781 12.902344 8.746094 12.515625 C 8.546875 12.089844 8.726562 11.625 8.855469 11.210938 C 8.933594 10.96875 9.03125 10.691406 8.976562 10.433594 " fill-opacity="1" fill-rule="nonzero"/></svg>