<svg xmlns="http://www.w3.org/2000/svg" xmlns:xlink="http://www.w3.org/1999/xlink" width="500" zoomAndPan="magnify" viewBox="0 0 375 374.999991" height="500" preserveAspectRatio="xMidYMid meet" version="1.0"><defs><clipPath id="41191c5de1"><path d="M 151 20.242188 L 224 20.242188 L 224 354.742188 L 151 354.742188 Z M 151 20.242188 " clip-rule="nonzero"/></clipPath><clipPath id="466a0cdffb"><path d="M 223 20.242188 L 369.445312 20.242188 L 369.445312 253 L 223 253 Z M 223 20.242188 " clip-rule="nonzero"/></clipPath><clipPath id="43c1fc3b80"><path d="M 5.695312 20.242188 L 152 20.242188 L 152 253 L 5.695312 253 Z M 5.695312 20.242188 " clip-rule="nonzero"/></clipPath></defs><g clip-path="url(#41191c5de1)"><path fill="#49969d" d="M 216.671875 340.195312 L 209.398438 340.195312 L 209.398438 34.785156 L 216.671875 34.785156 C 220.695312 34.785156 223.945312 31.527344 223.945312 27.515625 C 223.945312 23.5 220.695312 20.242188 216.671875 20.242188 L 158.472656 20.242188 C 154.457031 20.242188 151.195312 23.5 151.195312 27.515625 C 151.195312 31.527344 154.457031 34.785156 158.472656 34.785156 L 165.746094 34.785156 L 165.746094 340.195312 L 158.472656 340.195312 C 154.457031 340.195312 151.195312 343.445312 151.195312 347.46875 C 151.195312 351.488281 154.457031 354.738281 158.472656 354.738281 L 216.671875 354.738281 C 220.695312 354.738281 223.945312 351.488281 223.945312 347.46875 C 223.945312 343.445312 220.695312 340.195312 216.671875 340.195312 Z M 216.671875 340.195312 " fill-opacity="1" fill-rule="nonzero"/></g><g clip-path="url(#466a0cdffb)"><path fill="#49969d" d="M 362.113281 20.242188 C 362.113281 20.242188 362.078125 20.242188 362.070312 20.242188 C 362.0625 20.242188 362.0625 20.242188 362.0625 20.242188 C 298.058594 20.265625 289.421875 71.261719 289.421875 121.136719 C 289.421875 180.53125 271.882812 204.878906 223.945312 208.695312 L 223.945312 252.390625 C 289.765625 247.554688 325.796875 209.144531 325.796875 142.953125 C 325.796875 136.691406 325.441406 129.59375 325.054688 122.082031 C 323.664062 94.363281 321.917969 59.871094 337.03125 43.992188 C 342.90625 37.804688 351.105469 34.792969 362.070312 34.785156 C 362.085938 34.785156 362.097656 34.785156 362.113281 34.785156 C 366.136719 34.785156 369.386719 31.527344 369.386719 27.515625 C 369.386719 23.5 366.136719 20.242188 362.113281 20.242188 Z M 362.113281 20.242188 " fill-opacity="1" fill-rule="nonzero"/></g><g clip-path="url(#43c1fc3b80)"><path fill="#49969d" d="M 151.195312 208.695312 C 103.261719 204.878906 85.722656 180.53125 85.722656 121.136719 C 85.722656 71.261719 77.085938 20.265625 13.082031 20.242188 C 13.058594 20.242188 13.042969 20.242188 13.03125 20.242188 C 12.988281 20.242188 12.941406 20.234375 12.882812 20.242188 C 8.933594 20.320312 5.753906 23.542969 5.753906 27.515625 C 5.753906 31.527344 9.015625 34.785156 13.03125 34.785156 C 13.039062 34.785156 13.042969 34.785156 13.058594 34.785156 C 13.058594 34.785156 13.066406 34.785156 13.074219 34.785156 C 24.042969 34.792969 32.234375 37.804688 38.113281 43.992188 C 53.21875 59.878906 51.476562 94.371094 50.082031 122.082031 C 49.703125 129.59375 49.347656 136.691406 49.347656 142.953125 C 49.347656 209.144531 85.378906 247.554688 151.195312 252.390625 Z M 151.195312 208.695312 " fill-opacity="1" fill-rule="nonzero"/></g></svg>